{
    "accessors" : [
        {
            "bufferView" : 0, 
            "componentType" : 5123, 
            "count" : 3048, 
            "max" : [
                1020
            ], 
            "min" : [
                0
            ], 
            "type" : "SCALAR"
        }, 
        {
            "bufferView" : 1, 
            "componentType" : 5126, 
            "count" : 1021, 
            "max" : [
                2.7699999809265137, 
                3.9749999046325684, 
                2.7699999809265137
            ], 
            "min" : [
                -2.7699999809265137, 
                -5.3631978034973145, 
                -2.7699999809265137
            ], 
            "type" : "VEC3"
        }, 
        {
            "bufferView" : 2, 
            "componentType" : 5126, 
            "count" : 1021, 
            "max" : [
                0.9151585698127747, 
                0.8156682252883911, 
                0.9151585698127747
            ], 
            "min" : [
                -0.9151585698127747, 
                -0.9814752340316772, 
                -0.9151585698127747
            ], 
            "type" : "VEC3"
        }, 
        {
            "bufferView" : 3, 
            "componentType" : 5126, 
            "count" : 1021, 
            "max" : [
                1.0, 
                1.0
            ], 
            "min" : [
                0.0, 
                0.0
            ], 
            "type" : "VEC2"
        }
    ], 
    "asset" : {
        "generator" : "Khronos Blender glTF 2.0 exporter", 
        "version" : "2.0"
    }, 
    "bufferViews" : [
        {
            "buffer" : 0, 
            "byteLength" : 6096, 
            "byteOffset" : 0, 
            "target" : 34963
        }, 
        {
            "buffer" : 0, 
            "byteLength" : 12252, 
            "byteOffset" : 6096, 
            "target" : 34962
        }, 
        {
            "buffer" : 0, 
            "byteLength" : 12252, 
            "byteOffset" : 18348, 
            "target" : 34962
        }, 
        {
            "buffer" : 0, 
            "byteLength" : 8168, 
            "byteOffset" : 30600, 
            "target" : 34962
        }
    ], 
    "buffers" : [
        {
            "byteLength" : 38768, 
            "uri" : "tree_test.bin"
        }
    ], 
    "images" : [
        {
            "uri" : "TreeTexUnwrap.png"
        }
    ], 
    "materials" : [
        {
            "name" : "Material", 
            "pbrMetallicRoughness" : {
                "baseColorFactor" : [
                    0.6400000190734865, 
                    0.6400000190734865, 
                    0.6400000190734865, 
                    1.0
                ], 
                "baseColorTexture" : {
                    "index" : 0
                }, 
                "metallicFactor" : 0.0
            }
        }
    ], 
    "meshes" : [
        {
            "name" : "Cone", 
            "primitives" : [
                {
                    "attributes" : {
                        "NORMAL" : 2, 
                        "POSITION" : 1, 
                        "TEXCOORD_0" : 3
                    }, 
                    "indices" : 0, 
                    "material" : 0
                }
            ]
        }
    ], 
    "nodes" : [
        {
            "mesh" : 0, 
            "name" : "Cone", 
            "translation" : [
                -0.1705312430858612, 
                3.9970359802246094, 
                -0.053187839686870575
            ]
        }
    ], 
    "samplers" : [
        {}
    ], 
    "scene" : 0, 
    "scenes" : [
        {
            "name" : "Scene", 
            "nodes" : [
                0
            ]
        }
    ], 
    "textures" : [
        {
            "sampler" : 0, 
            "source" : 0
        }
    ]
}
